:SAMPLES-PER-SECOND 30
:FULLY-SPECIFIED
:DEGREES
359
root  -60.2475 34.0801 2.4998 -6.50098 65.3116 -18.5378
RightUpLeg  -20.4569 -14.284 5.06356
RightLeg  11.6032 -4.31176 -0.597926
RightFoot  10.6324 0.12819 -0.814395
RightToes  -30.2659 -0.145756 -0.25381
Spine  -2.11057 -2.90344 4.93463
Spine1  -4.57404 -6.07185 10.6022
HEad  -84.0838 -4.2156 25.0193
LeftShoulder1  -1.94126e-019 -3.10601e-018 -2.51263e-017
LeftArm  -6.18727 20.497 -76.8354
LeftForeArm  32.4033 -34.3421 -6.24049
LeftHand  -0.429697 -1.28039 7.63223
RightShoulder  -4.96962e-017 0 -2.36833e-017
RightArm  -41.5386 -29.7577 65.0315
RightForeArm  63.5774 7.74287 1.31083
RightHand  -0.27241 -2.77276 -11.6894
LeftUpLeg  -3.82545 12.8164 8.08317
LeftLeg  28.9884 21.6509 9.89189
LeftFoot  -2.13643 -0.0202702 -0.925484
LeftToes  -43.015 1.83942e-006 5.51297e-008
360
root  -59.8374 34.1156 3.01099 -8.396 65.8676 -20.1182
RightUpLeg  -18.6933 -16.0937 6.0142
RightLeg  10.9128 -3.57003 -0.451286
RightFoot  9.45126 0.093314 -0.570863
RightToes  -28.8227 -0.135898 -0.2437
Spine  -1.94149 -2.35947 4.79614
Spine1  -4.08764 -4.82147 10.1331
HEad  -84.2893 -4.76102 24.3843
LeftShoulder1  -1.94126e-019 -3.10601e-018 -2.51263e-017
LeftArm  -5.49286 21.0982 -77.5728
LeftForeArm  32.7342 -36.8232 -6.46743
LeftHand  -0.413867 -2.01863 6.67746
RightShoulder  -4.96962e-017 0 -2.36833e-017
RightArm  -40.1386 -25.6979 62.8362
RightForeArm  64.0705 7.86651 1.33086
RightHand  -0.241476 -3.0532 -11.4988
LeftUpLeg  -5.02313 13.0697 9.76952
LeftLeg  33.3482 19.706 10.8676
LeftFoot  1.07857 -0.00282308 0.461511
LeftToes  -51.3442 1.83942e-006 5.51297e-008
361
root  -59.4173 34.125 3.49551 -10.9776 66.3565 -22.1407
RightUpLeg  -16.624 -17.3567 6.68811
RightLeg  10.286 -2.9192 -0.33651
RightFoot  8.66218 0.0718818 -0.395901
RightToes  -29.5139 -0.140588 -0.248573
Spine  -1.6201 -1.90385 4.74349
Spine1  -3.34363 -3.78392 9.8775
HEad  -84.6738 -4.80089 23.5415
LeftShoulder1  -1.94126e-019 -3.10601e-018 -2.51263e-017
LeftArm  -6.33082 21.9853 -78.6321
LeftForeArm  34.0121 -39.1439 -7.01522
LeftHand  -0.376876 -2.95045 5.47909
RightShoulder  -4.96962e-017 0 -2.36833e-017
RightArm  -38.9859 -21.2825 60.7551
RightForeArm  63.849 8.16516 1.37603
RightHand  -0.240525 -3.12675 -11.8171
LeftUpLeg  -6.98606 13.4246 11.6828
LeftLeg  39.2067 17.8001 12.306
LeftFoot  5.30495 -0.0912342 2.13072
LeftToes  -60.5741 1.83942e-006 5.51297e-008
362
root  -58.9938 34.1193 3.94814 -14.2977 66.9271 -24.7491
RightUpLeg  -14.2993 -17.677 7.14895
RightLeg  9.61609 -3.25387 -0.336588
RightFoot  8.13724 0.0674668 -0.394416
RightToes  -30.6081 -0.148131 -0.25617
Spine  -1.21053 -1.49648 4.79848
Spine1  -2.44734 -2.87839 9.83987
HEad  -84.8949 -4.63258 22.8754
LeftShoulder1  -1.94126e-019 -3.10601e-018 -2.51263e-017
LeftArm  -7.35552 22.4196 -80.0466
LeftForeArm  33.8485 -40.2854 -7.35388
LeftHand  -0.407601 -3.41037 5.62821
RightShoulder  -4.96962e-017 0 -2.36833e-017
RightArm  -36.399 -17.09 58.6683
RightForeArm  61.0312 9.10712 1.48396
RightHand  -0.253868 -3.06283 -12.178
LeftUpLeg  -9.52985 13.2281 13.6911
LeftLeg  45.9136 15.151 13.3395
LeftFoot  10.7897 -0.363028 4.00427
LeftToes  -63.9246 1.83942e-006 5.51297e-008
363
root  -58.5337 34.1243 4.25971 -16.7857 68.2681 -26.3369
RightUpLeg  -12.1925 -20.0683 6.87359
RightLeg  9.38553 -2.4192 -0.240233
RightFoot  7.2052 0.0484928 -0.221826
RightToes  -31.0981 -0.151555 -0.259525
Spine  -0.798005 -1.21709 4.68047
Spine1  -1.56957 -2.24658 9.47937
HEad  -84.9116 -4.45753 22.6008
LeftShoulder1  -1.94126e-019 -3.10601e-018 -2.51263e-017
LeftArm  -9.14425 22.5756 -81.8076
LeftForeArm  33.5023 -40.0495 -7.29511
LeftHand  -0.433518 -3.68383 5.80743
RightShoulder  -4.96962e-017 0 -2.36833e-017
RightArm  -33.5531 -13.4518 56.4698
RightForeArm  58.8092 10.7604 1.541
RightHand  -0.220641 -3.19949 -11.1235
LeftUpLeg  -12.6319 12.4586 14.4809
LeftLeg  52.6817 13.0726 14.5753
LeftFoot  15.6167 -0.74612 5.59846
LeftToes  -58.5697 1.83942e-006 5.51297e-008
364
root  -58.0517 34.1648 4.45102 -18.6727 70.1842 -27.4243
RightUpLeg  -10.3222 -23.5539 6.03281
RightLeg  9.28189 -1.14921 -0.111514
RightFoot  6.29651 0.0312323 -0.0278948
RightToes  -31.1237 -0.151735 -0.259699
Spine  -0.555966 -0.976327 4.37855
Spine1  -1.06141 -1.7123 8.85243
HEad  -84.5508 -4.88235 23.1646
LeftShoulder1  -1.94126e-019 -3.10601e-018 -2.51263e-017
LeftArm  -10.4143 22.594 -83.3854
LeftForeArm  33.5489 -38.8226 -6.92634
LeftHand  -0.427393 -3.83265 5.64598
RightShoulder  -4.96962e-017 0 -2.36833e-017
RightArm  -32.4608 -10.6319 54.5962
RightForeArm  55.8863 11.8884 1.49517
RightHand  -0.318147 -2.56612 -12.761
LeftUpLeg  -16.0066 12.1759 14.3709
LeftLeg  58.3273 11.8799 16.1693
LeftFoot  16.7798 -0.891083 6.19789
LeftToes  -41.0922 1.83942e-006 5.51297e-008
365
root  -57.579 34.2557 4.49251 -18.4896 72.0827 -26.8352
RightUpLeg  -8.98045 -23.7943 4.35142
RightLeg  9.22531 -2.28202 -0.220113
RightFoot  6.08552 0.0352508 -0.118415
RightToes  -32.0345 -0.153972 -0.26184
Spine  -0.457868 -0.636676 3.81999
Spine1  -0.859953 -0.999827 7.78199
HEad  -83.8908 -5.36984 24.7953
LeftShoulder1  -1.94126e-019 -3.10601e-018 -2.51263e-017
LeftArm  -11.5314 22.9528 -84.3047
LeftForeArm  35.013 -37.5666 -6.48011
LeftHand  -0.354309 -4.59845 4.40903
RightShoulder  -4.96962e-017 0 -2.36833e-017
RightArm  -30.0352 -8.8499 52.9537
RightForeArm  53.9539 14.1068 1.27517
RightHand  -0.20657 -3.46043 -11.7413
LeftUpLeg  -19.3407 12.5373 13.1691
LeftLeg  60.5812 8.96486 13.4308
LeftFoot  13.8145 -0.482366 4.14183
LeftToes  -37.7528 1.83942e-006 5.51297e-008
366
root  -57.1059 34.3363 4.46398 -17.7551 73.9522 -25.965
RightUpLeg  -7.92641 -23.872 2.80251
RightLeg  9.12849 -3.82401 -0.362745
RightFoot  5.89931 0.042234 -0.246692
RightToes  -32.2795 -0.157177 -0.264897
Spine  -0.52324 -0.271465 3.13484
Spine1  -1.00259 -0.272378 6.53017
HEad  -83.0768 -6.37897 26.4809
LeftShoulder1  -1.94126e-019 -3.10601e-018 -2.51263e-017
LeftArm  -11.1069 23.9911 -84.0609
LeftForeArm  35.8521 -36.9464 -6.25806
LeftHand  -0.305973 -4.78885 3.78663
RightShoulder  -4.96962e-017 0 -2.36833e-017
RightArm  -30.0935 -7.86542 52.1276
RightForeArm  52.1285 15.7876 1.14992
RightHand  -0.188544 -3.76667 -12.6241
LeftUpLeg  -22.8093 13.738 11.3967
LeftLeg  61.1532 8.19184 12.5809
LeftFoot  11.881 -0.33186 3.35003
LeftToes  -39.2567 1.83942e-006 5.51297e-008
